<svg class="scene" viewBox="0 0 480 420" width="480" height="420" shape-rendering="crispEdges" role="img" aria-label="An isometric voxel island"><rect x="115" y="0" width="10" height="5" fill="#ffe9a8"/><rect x="105" y="5" width="30" height="5" fill="#ffe9a8"/><rect x="95" y="10" width="50" height="5" fill="#ffe9a8"/><rect x="85" y="15" width="70" height="5" fill="#ffe9a8"/><rect x="75" y="20" width="90" height="5" fill="#ffe9a8"/><rect x="65" y="25" width="110" height="5" fill="#ffe9a8"/><rect x="60" y="30" width="5" height="5" fill="#f5b942"/><rect x="65" y="30" width="110" height="5" fill="#ffe9a8"/><rect x="175" y="30" width="5" height="5" fill="#d18a1f"/><rect x="180" y="30" width="5" height="5" fill="#7cae4e"/><rect x="295" y="30" width="10" height="5" fill="#7cae4e"/><rect x="60" y="35" width="15" height="5" fill="#f5b942"/><rect x="75" y="35" width="90" height="5" fill="#ffe9a8"/><rect x="165" y="35" width="15" height="5" fill="#d18a1f"/><rect x="180" y="35" width="15" height="5" fill="#7cae4e"/><rect x="285" y="35" width="30" height="5" fill="#7cae4e"/><rect x="60" y="40" width="25" height="5" fill="#f5b942"/><rect x="85" y="40" width="70" height="5" fill="#ffe9a8"/><rect x="155" y="40" width="25" height="5" fill="#d18a1f"/><rect x="180" y="40" width="25" height="5" fill="#7cae4e"/><rect x="275" y="40" width="50" height="5" fill="#7cae4e"/><rect x="60" y="45" width="35" height="5" fill="#f5b942"/><rect x="95" y="45" width="50" height="5" fill="#ffe9a8"/><rect x="145" y="45" width="35" height="5" fill="#d18a1f"/><rect x="180" y="45" width="35" height="5" fill="#7cae4e"/><rect x="265" y="45" width="70" height="5" fill="#7cae4e"/><rect x="60" y="50" width="45" height="5" fill="#f5b942"/><rect x="105" y="50" width="30" height="5" fill="#ffe9a8"/><rect x="135" y="50" width="45" height="5" fill="#d18a1f"/><rect x="180" y="50" width="45" height="5" fill="#7cae4e"/><rect x="255" y="50" width="90" height="5" fill="#7cae4e"/><rect x="60" y="55" width="55" height="5" fill="#f5b942"/><rect x="115" y="55" width="10" height="5" fill="#ffe9a8"/><rect x="125" y="55" width="55" height="5" fill="#d18a1f"/><rect x="180" y="55" width="55" height="5" fill="#7cae4e"/><rect x="245" y="55" width="110" height="5" fill="#7cae4e"/><rect x="60" y="60" width="60" height="5" fill="#f5b942"/><rect x="120" y="60" width="60" height="5" fill="#d18a1f"/><rect x="180" y="60" width="185" height="5" fill="#7cae4e"/><rect x="60" y="65" width="60" height="5" fill="#f5b942"/><rect x="120" y="65" width="60" height="5" fill="#d18a1f"/><rect x="180" y="65" width="195" height="5" fill="#7cae4e"/><rect x="60" y="70" width="60" height="5" fill="#f5b942"/><rect x="120" y="70" width="60" height="5" fill="#d18a1f"/><rect x="180" y="70" width="205" height="5" fill="#7cae4e"/><rect x="60" y="75" width="60" height="5" fill="#f5b942"/><rect x="120" y="75" width="60" height="5" fill="#d18a1f"/><rect x="180" y="75" width="215" height="5" fill="#7cae4e"/><rect x="60" y="80" width="60" height="5" fill="#f5b942"/><rect x="120" y="80" width="60" height="5" fill="#d18a1f"/><rect x="180" y="80" width="225" height="5" fill="#7cae4e"/><rect x="60" y="85" width="60" height="5" fill="#f5b942"/><rect x="120" y="85" width="60" height="5" fill="#d18a1f"/><rect x="180" y="85" width="235" height="5" fill="#7cae4e"/><rect x="55" y="90" width="10" height="5" fill="#7cae4e"/><rect x="65" y="90" width="55" height="5" fill="#f5b942"/><rect x="120" y="90" width="55" height="5" fill="#d18a1f"/><rect x="175" y="90" width="240" height="5" fill="#7cae4e"/><rect x="415" y="90" width="10" height="5" fill="#ffe9a8"/><rect x="45" y="95" width="30" height="5" fill="#7cae4e"/><rect x="75" y="95" width="45" height="5" fill="#f5b942"/><rect x="120" y="95" width="45" height="5" fill="#d18a1f"/><rect x="165" y="95" width="240" height="5" fill="#7cae4e"/><rect x="405" y="95" width="30" height="5" fill="#ffe9a8"/><rect x="35" y="100" width="50" height="5" fill="#7cae4e"/><rect x="85" y="100" width="35" height="5" fill="#f5b942"/><rect x="120" y="100" width="35" height="5" fill="#d18a1f"/><rect x="155" y="100" width="240" height="5" fill="#7cae4e"/><rect x="395" y="100" width="50" height="5" fill="#ffe9a8"/><rect x="25" y="105" width="70" height="5" fill="#7cae4e"/><rect x="95" y="105" width="25" height="5" fill="#f5b942"/><rect x="120" y="105" width="25" height="5" fill="#d18a1f"/><rect x="145" y="105" width="240" height="5" fill="#7cae4e"/><rect x="385" y="105" width="70" height="5" fill="#ffe9a8"/><rect x="15" y="110" width="90" height="5" fill="#7cae4e"/><rect x="105" y="110" width="15" height="5" fill="#f5b942"/><rect x="120" y="110" width="15" height="5" fill="#d18a1f"/><rect x="135" y="110" width="240" height="5" fill="#7cae4e"/><rect x="375" y="110" width="90" height="5" fill="#ffe9a8"/><rect x="5" y="115" width="110" height="5" fill="#7cae4e"/><rect x="115" y="115" width="5" height="5" fill="#f5b942"/><rect x="120" y="115" width="5" height="5" fill="#d18a1f"/><rect x="125" y="115" width="240" height="5" fill="#7cae4e"/><rect x="365" y="115" width="110" height="5" fill="#ffe9a8"/><rect x="0" y="120" width="5" height="5" fill="#5b8a3c"/><rect x="5" y="120" width="355" height="5" fill="#7cae4e"/><rect x="360" y="120" width="5" height="5" fill="#f5b942"/><rect x="365" y="120" width="110" height="5" fill="#ffe9a8"/><rect x="475" y="120" width="5" height="5" fill="#d18a1f"/><rect x="0" y="125" width="15" height="5" fill="#5b8a3c"/><rect x="15" y="125" width="345" height="5" fill="#7cae4e"/><rect x="360" y="125" width="15" height="5" fill="#f5b942"/><rect x="375" y="125" width="90" height="5" fill="#ffe9a8"/><rect x="465" y="125" width="15" height="5" fill="#d18a1f"/><rect x="0" y="130" width="25" height="5" fill="#5b8a3c"/><rect x="25" y="130" width="335" height="5" fill="#7cae4e"/><rect x="360" y="130" width="25" height="5" fill="#f5b942"/><rect x="385" y="130" width="70" height="5" fill="#ffe9a8"/><rect x="455" y="130" width="25" height="5" fill="#d18a1f"/><rect x="0" y="135" width="35" height="5" fill="#5b8a3c"/><rect x="35" y="135" width="325" height="5" fill="#7cae4e"/><rect x="360" y="135" width="35" height="5" fill="#f5b942"/><rect x="395" y="135" width="50" height="5" fill="#ffe9a8"/><rect x="445" y="135" width="35" height="5" fill="#d18a1f"/><rect x="0" y="140" width="45" height="5" fill="#5b8a3c"/><rect x="45" y="140" width="315" height="5" fill="#7cae4e"/><rect x="360" y="140" width="45" height="5" fill="#f5b942"/><rect x="405" y="140" width="30" height="5" fill="#ffe9a8"/><rect x="435" y="140" width="45" height="5" fill="#d18a1f"/><rect x="0" y="145" width="55" height="5" fill="#5b8a3c"/><rect x="55" y="145" width="305" height="5" fill="#7cae4e"/><rect x="360" y="145" width="55" height="5" fill="#f5b942"/><rect x="415" y="145" width="10" height="5" fill="#ffe9a8"/><rect x="425" y="145" width="55" height="5" fill="#d18a1f"/><rect x="0" y="150" width="55" height="5" fill="#5b8a3c"/><rect x="55" y="150" width="305" height="5" fill="#7cae4e"/><rect x="360" y="150" width="60" height="5" fill="#f5b942"/><rect x="420" y="150" width="60" height="5" fill="#d18a1f"/><rect x="0" y="155" width="45" height="5" fill="#5b8a3c"/><rect x="45" y="155" width="315" height="5" fill="#7cae4e"/><rect x="360" y="155" width="60" height="5" fill="#f5b942"/><rect x="420" y="155" width="60" height="5" fill="#d18a1f"/><rect x="0" y="160" width="35" height="5" fill="#5b8a3c"/><rect x="35" y="160" width="325" height="5" fill="#7cae4e"/><rect x="360" y="160" width="60" height="5" fill="#f5b942"/><rect x="420" y="160" width="60" height="5" fill="#d18a1f"/><rect x="0" y="165" width="25" height="5" fill="#5b8a3c"/><rect x="25" y="165" width="335" height="5" fill="#7cae4e"/><rect x="360" y="165" width="60" height="5" fill="#f5b942"/><rect x="420" y="165" width="60" height="5" fill="#d18a1f"/><rect x="0" y="170" width="15" height="5" fill="#5b8a3c"/><rect x="15" y="170" width="345" height="5" fill="#7cae4e"/><rect x="360" y="170" width="60" height="5" fill="#f5b942"/><rect x="420" y="170" width="60" height="5" fill="#d18a1f"/><rect x="0" y="175" width="5" height="5" fill="#5b8a3c"/><rect x="5" y="175" width="355" height="5" fill="#7cae4e"/><rect x="360" y="175" width="60" height="5" fill="#f5b942"/><rect x="420" y="175" width="60" height="5" fill="#d18a1f"/><rect x="0" y="180" width="5" height="5" fill="#5b8a3c"/><rect x="5" y="180" width="360" height="5" fill="#7cae4e"/><rect x="365" y="180" width="55" height="5" fill="#f5b942"/><rect x="420" y="180" width="55" height="5" fill="#d18a1f"/><rect x="475" y="180" width="5" height="5" fill="#43682b"/><rect x="0" y="185" width="15" height="5" fill="#5b8a3c"/><rect x="15" y="185" width="360" height="5" fill="#7cae4e"/><rect x="375" y="185" width="45" height="5" fill="#f5b942"/><rect x="420" y="185" width="45" height="5" fill="#d18a1f"/><rect x="465" y="185" width="15" height="5" fill="#43682b"/><rect x="0" y="190" width="25" height="5" fill="#5b8a3c"/><rect x="25" y="190" width="360" height="5" fill="#7cae4e"/><rect x="385" y="190" width="35" height="5" fill="#f5b942"/><rect x="420" y="190" width="35" height="5" fill="#d18a1f"/><rect x="455" y="190" width="25" height="5" fill="#43682b"/><rect x="0" y="195" width="35" height="5" fill="#5b8a3c"/><rect x="35" y="195" width="360" height="5" fill="#7cae4e"/><rect x="395" y="195" width="25" height="5" fill="#f5b942"/><rect x="420" y="195" width="25" height="5" fill="#d18a1f"/><rect x="445" y="195" width="35" height="5" fill="#43682b"/><rect x="0" y="200" width="45" height="5" fill="#5b8a3c"/><rect x="45" y="200" width="360" height="5" fill="#7cae4e"/><rect x="405" y="200" width="15" height="5" fill="#f5b942"/><rect x="420" y="200" width="15" height="5" fill="#d18a1f"/><rect x="435" y="200" width="45" height="5" fill="#43682b"/><rect x="0" y="205" width="55" height="5" fill="#5b8a3c"/><rect x="55" y="205" width="360" height="5" fill="#7cae4e"/><rect x="415" y="205" width="5" height="5" fill="#f5b942"/><rect x="420" y="205" width="5" height="5" fill="#d18a1f"/><rect x="425" y="205" width="55" height="5" fill="#43682b"/><rect x="0" y="210" width="65" height="5" fill="#5b8a3c"/><rect x="65" y="210" width="350" height="5" fill="#7cae4e"/><rect x="415" y="210" width="65" height="5" fill="#43682b"/><rect x="0" y="215" width="75" height="5" fill="#5b8a3c"/><rect x="75" y="215" width="330" height="5" fill="#7cae4e"/><rect x="405" y="215" width="75" height="5" fill="#43682b"/><rect x="0" y="220" width="85" height="5" fill="#5b8a3c"/><rect x="85" y="220" width="310" height="5" fill="#7cae4e"/><rect x="395" y="220" width="85" height="5" fill="#43682b"/><rect x="0" y="225" width="95" height="5" fill="#5b8a3c"/><rect x="95" y="225" width="290" height="5" fill="#7cae4e"/><rect x="385" y="225" width="95" height="5" fill="#43682b"/><rect x="0" y="230" width="105" height="5" fill="#5b8a3c"/><rect x="105" y="230" width="270" height="5" fill="#7cae4e"/><rect x="375" y="230" width="105" height="5" fill="#43682b"/><rect x="0" y="235" width="115" height="5" fill="#5b8a3c"/><rect x="115" y="235" width="250" height="5" fill="#7cae4e"/><rect x="365" y="235" width="115" height="5" fill="#43682b"/><rect x="0" y="240" width="5" height="5" fill="#525c6b"/><rect x="5" y="240" width="120" height="5" fill="#5b8a3c"/><rect x="125" y="240" width="110" height="5" fill="#7cae4e"/><rect x="235" y="240" width="5" height="5" fill="#43682b"/><rect x="240" y="240" width="5" height="5" fill="#5b8a3c"/><rect x="245" y="240" width="110" height="5" fill="#7cae4e"/><rect x="355" y="240" width="120" height="5" fill="#43682b"/><rect x="475" y="240" width="5" height="5" fill="#363e4b"/><rect x="0" y="245" width="15" height="5" fill="#525c6b"/><rect x="15" y="245" width="120" height="5" fill="#5b8a3c"/><rect x="135" y="245" width="90" height="5" fill="#7cae4e"/><rect x="225" y="245" width="15" height="5" fill="#43682b"/><rect x="240" y="245" width="15" height="5" fill="#5b8a3c"/><rect x="255" y="245" width="90" height="5" fill="#7cae4e"/><rect x="345" y="245" width="120" height="5" fill="#43682b"/><rect x="465" y="245" width="15" height="5" fill="#363e4b"/><rect x="0" y="250" width="25" height="5" fill="#525c6b"/><rect x="25" y="250" width="120" height="5" fill="#5b8a3c"/><rect x="145" y="250" width="70" height="5" fill="#7cae4e"/><rect x="215" y="250" width="25" height="5" fill="#43682b"/><rect x="240" y="250" width="25" height="5" fill="#5b8a3c"/><rect x="265" y="250" width="70" height="5" fill="#7cae4e"/><rect x="335" y="250" width="120" height="5" fill="#43682b"/><rect x="455" y="250" width="25" height="5" fill="#363e4b"/><rect x="0" y="255" width="35" height="5" fill="#525c6b"/><rect x="35" y="255" width="120" height="5" fill="#5b8a3c"/><rect x="155" y="255" width="50" height="5" fill="#7cae4e"/><rect x="205" y="255" width="35" height="5" fill="#43682b"/><rect x="240" y="255" width="35" height="5" fill="#5b8a3c"/><rect x="275" y="255" width="50" height="5" fill="#7cae4e"/><rect x="325" y="255" width="120" height="5" fill="#43682b"/><rect x="445" y="255" width="35" height="5" fill="#363e4b"/><rect x="0" y="260" width="45" height="5" fill="#525c6b"/><rect x="45" y="260" width="120" height="5" fill="#5b8a3c"/><rect x="165" y="260" width="30" height="5" fill="#7cae4e"/><rect x="195" y="260" width="45" height="5" fill="#43682b"/><rect x="240" y="260" width="45" height="5" fill="#5b8a3c"/><rect x="285" y="260" width="30" height="5" fill="#7cae4e"/><rect x="315" y="260" width="120" height="5" fill="#43682b"/><rect x="435" y="260" width="45" height="5" fill="#363e4b"/><rect x="0" y="265" width="55" height="5" fill="#525c6b"/><rect x="55" y="265" width="120" height="5" fill="#5b8a3c"/><rect x="175" y="265" width="10" height="5" fill="#7cae4e"/><rect x="185" y="265" width="55" height="5" fill="#43682b"/><rect x="240" y="265" width="55" height="5" fill="#5b8a3c"/><rect x="295" y="265" width="10" height="5" fill="#7cae4e"/><rect x="305" y="265" width="120" height="5" fill="#43682b"/><rect x="425" y="265" width="55" height="5" fill="#363e4b"/><rect x="0" y="270" width="65" height="5" fill="#525c6b"/><rect x="65" y="270" width="115" height="5" fill="#5b8a3c"/><rect x="180" y="270" width="60" height="5" fill="#43682b"/><rect x="240" y="270" width="60" height="5" fill="#5b8a3c"/><rect x="300" y="270" width="115" height="5" fill="#43682b"/><rect x="415" y="270" width="65" height="5" fill="#363e4b"/><rect x="0" y="275" width="75" height="5" fill="#525c6b"/><rect x="75" y="275" width="105" height="5" fill="#5b8a3c"/><rect x="180" y="275" width="60" height="5" fill="#43682b"/><rect x="240" y="275" width="60" height="5" fill="#5b8a3c"/><rect x="300" y="275" width="105" height="5" fill="#43682b"/><rect x="405" y="275" width="75" height="5" fill="#363e4b"/><rect x="0" y="280" width="85" height="5" fill="#525c6b"/><rect x="85" y="280" width="95" height="5" fill="#5b8a3c"/><rect x="180" y="280" width="60" height="5" fill="#43682b"/><rect x="240" y="280" width="60" height="5" fill="#5b8a3c"/><rect x="300" y="280" width="95" height="5" fill="#43682b"/><rect x="395" y="280" width="85" height="5" fill="#363e4b"/><rect x="0" y="285" width="95" height="5" fill="#525c6b"/><rect x="95" y="285" width="85" height="5" fill="#5b8a3c"/><rect x="180" y="285" width="60" height="5" fill="#43682b"/><rect x="240" y="285" width="60" height="5" fill="#5b8a3c"/><rect x="300" y="285" width="85" height="5" fill="#43682b"/><rect x="385" y="285" width="95" height="5" fill="#363e4b"/><rect x="0" y="290" width="105" height="5" fill="#525c6b"/><rect x="105" y="290" width="75" height="5" fill="#5b8a3c"/><rect x="180" y="290" width="60" height="5" fill="#43682b"/><rect x="240" y="290" width="60" height="5" fill="#5b8a3c"/><rect x="300" y="290" width="75" height="5" fill="#43682b"/><rect x="375" y="290" width="105" height="5" fill="#363e4b"/><rect x="0" y="295" width="115" height="5" fill="#525c6b"/><rect x="115" y="295" width="65" height="5" fill="#5b8a3c"/><rect x="180" y="295" width="60" height="5" fill="#43682b"/><rect x="240" y="295" width="60" height="5" fill="#5b8a3c"/><rect x="300" y="295" width="65" height="5" fill="#43682b"/><rect x="365" y="295" width="115" height="5" fill="#363e4b"/><rect x="5" y="300" width="120" height="5" fill="#525c6b"/><rect x="125" y="300" width="55" height="5" fill="#5b8a3c"/><rect x="180" y="300" width="55" height="5" fill="#43682b"/><rect x="235" y="300" width="5" height="5" fill="#363e4b"/><rect x="240" y="300" width="5" height="5" fill="#525c6b"/><rect x="245" y="300" width="55" height="5" fill="#5b8a3c"/><rect x="300" y="300" width="55" height="5" fill="#43682b"/><rect x="355" y="300" width="120" height="5" fill="#363e4b"/><rect x="15" y="305" width="120" height="5" fill="#525c6b"/><rect x="135" y="305" width="45" height="5" fill="#5b8a3c"/><rect x="180" y="305" width="45" height="5" fill="#43682b"/><rect x="225" y="305" width="15" height="5" fill="#363e4b"/><rect x="240" y="305" width="15" height="5" fill="#525c6b"/><rect x="255" y="305" width="45" height="5" fill="#5b8a3c"/><rect x="300" y="305" width="45" height="5" fill="#43682b"/><rect x="345" y="305" width="120" height="5" fill="#363e4b"/><rect x="25" y="310" width="120" height="5" fill="#525c6b"/><rect x="145" y="310" width="35" height="5" fill="#5b8a3c"/><rect x="180" y="310" width="35" height="5" fill="#43682b"/><rect x="215" y="310" width="25" height="5" fill="#363e4b"/><rect x="240" y="310" width="25" height="5" fill="#525c6b"/><rect x="265" y="310" width="35" height="5" fill="#5b8a3c"/><rect x="300" y="310" width="35" height="5" fill="#43682b"/><rect x="335" y="310" width="120" height="5" fill="#363e4b"/><rect x="35" y="315" width="120" height="5" fill="#525c6b"/><rect x="155" y="315" width="25" height="5" fill="#5b8a3c"/><rect x="180" y="315" width="25" height="5" fill="#43682b"/><rect x="205" y="315" width="35" height="5" fill="#363e4b"/><rect x="240" y="315" width="35" height="5" fill="#525c6b"/><rect x="275" y="315" width="25" height="5" fill="#5b8a3c"/><rect x="300" y="315" width="25" height="5" fill="#43682b"/><rect x="325" y="315" width="120" height="5" fill="#363e4b"/><rect x="45" y="320" width="120" height="5" fill="#525c6b"/><rect x="165" y="320" width="15" height="5" fill="#5b8a3c"/><rect x="180" y="320" width="15" height="5" fill="#43682b"/><rect x="195" y="320" width="45" height="5" fill="#363e4b"/><rect x="240" y="320" width="45" height="5" fill="#525c6b"/><rect x="285" y="320" width="15" height="5" fill="#5b8a3c"/><rect x="300" y="320" width="15" height="5" fill="#43682b"/><rect x="315" y="320" width="120" height="5" fill="#363e4b"/><rect x="55" y="325" width="120" height="5" fill="#525c6b"/><rect x="175" y="325" width="5" height="5" fill="#5b8a3c"/><rect x="180" y="325" width="5" height="5" fill="#43682b"/><rect x="185" y="325" width="55" height="5" fill="#363e4b"/><rect x="240" y="325" width="55" height="5" fill="#525c6b"/><rect x="295" y="325" width="5" height="5" fill="#5b8a3c"/><rect x="300" y="325" width="5" height="5" fill="#43682b"/><rect x="305" y="325" width="120" height="5" fill="#363e4b"/><rect x="65" y="330" width="115" height="5" fill="#525c6b"/><rect x="180" y="330" width="60" height="5" fill="#363e4b"/><rect x="240" y="330" width="60" height="5" fill="#525c6b"/><rect x="300" y="330" width="115" height="5" fill="#363e4b"/><rect x="75" y="335" width="105" height="5" fill="#525c6b"/><rect x="180" y="335" width="60" height="5" fill="#363e4b"/><rect x="240" y="335" width="60" height="5" fill="#525c6b"/><rect x="300" y="335" width="105" height="5" fill="#363e4b"/><rect x="85" y="340" width="95" height="5" fill="#525c6b"/><rect x="180" y="340" width="60" height="5" fill="#363e4b"/><rect x="240" y="340" width="60" height="5" fill="#525c6b"/><rect x="300" y="340" width="95" height="5" fill="#363e4b"/><rect x="95" y="345" width="85" height="5" fill="#525c6b"/><rect x="180" y="345" width="60" height="5" fill="#363e4b"/><rect x="240" y="345" width="60" height="5" fill="#525c6b"/><rect x="300" y="345" width="85" height="5" fill="#363e4b"/><rect x="105" y="350" width="75" height="5" fill="#525c6b"/><rect x="180" y="350" width="60" height="5" fill="#363e4b"/><rect x="240" y="350" width="60" height="5" fill="#525c6b"/><rect x="300" y="350" width="75" height="5" fill="#363e4b"/><rect x="115" y="355" width="65" height="5" fill="#525c6b"/><rect x="180" y="355" width="60" height="5" fill="#363e4b"/><rect x="240" y="355" width="60" height="5" fill="#525c6b"/><rect x="300" y="355" width="65" height="5" fill="#363e4b"/><rect x="125" y="360" width="55" height="5" fill="#525c6b"/><rect x="180" y="360" width="55" height="5" fill="#363e4b"/><rect x="235" y="360" width="5" height="5" fill="#525c6b"/><rect x="240" y="360" width="5" height="5" fill="#363e4b"/><rect x="245" y="360" width="55" height="5" fill="#525c6b"/><rect x="300" y="360" width="55" height="5" fill="#363e4b"/><rect x="135" y="365" width="45" height="5" fill="#525c6b"/><rect x="180" y="365" width="45" height="5" fill="#363e4b"/><rect x="225" y="365" width="15" height="5" fill="#525c6b"/><rect x="240" y="365" width="15" height="5" fill="#363e4b"/><rect x="255" y="365" width="45" height="5" fill="#525c6b"/><rect x="300" y="365" width="45" height="5" fill="#363e4b"/><rect x="145" y="370" width="35" height="5" fill="#525c6b"/><rect x="180" y="370" width="35" height="5" fill="#363e4b"/><rect x="215" y="370" width="25" height="5" fill="#525c6b"/><rect x="240" y="370" width="25" height="5" fill="#363e4b"/><rect x="265" y="370" width="35" height="5" fill="#525c6b"/><rect x="300" y="370" width="35" height="5" fill="#363e4b"/><rect x="155" y="375" width="25" height="5" fill="#525c6b"/><rect x="180" y="375" width="25" height="5" fill="#363e4b"/><rect x="205" y="375" width="35" height="5" fill="#525c6b"/><rect x="240" y="375" width="35" height="5" fill="#363e4b"/><rect x="275" y="375" width="25" height="5" fill="#525c6b"/><rect x="300" y="375" width="25" height="5" fill="#363e4b"/><rect x="165" y="380" width="15" height="5" fill="#525c6b"/><rect x="180" y="380" width="15" height="5" fill="#363e4b"/><rect x="195" y="380" width="45" height="5" fill="#525c6b"/><rect x="240" y="380" width="45" height="5" fill="#363e4b"/><rect x="285" y="380" width="15" height="5" fill="#525c6b"/><rect x="300" y="380" width="15" height="5" fill="#363e4b"/><rect x="175" y="385" width="5" height="5" fill="#525c6b"/><rect x="180" y="385" width="5" height="5" fill="#363e4b"/><rect x="185" y="385" width="55" height="5" fill="#525c6b"/><rect x="240" y="385" width="55" height="5" fill="#363e4b"/><rect x="295" y="385" width="5" height="5" fill="#525c6b"/><rect x="300" y="385" width="5" height="5" fill="#363e4b"/><rect x="185" y="390" width="55" height="5" fill="#525c6b"/><rect x="240" y="390" width="55" height="5" fill="#363e4b"/><rect x="195" y="395" width="45" height="5" fill="#525c6b"/><rect x="240" y="395" width="45" height="5" fill="#363e4b"/><rect x="205" y="400" width="35" height="5" fill="#525c6b"/><rect x="240" y="400" width="35" height="5" fill="#363e4b"/><rect x="215" y="405" width="25" height="5" fill="#525c6b"/><rect x="240" y="405" width="25" height="5" fill="#363e4b"/><rect x="225" y="410" width="15" height="5" fill="#525c6b"/><rect x="240" y="410" width="15" height="5" fill="#363e4b"/><rect x="235" y="415" width="5" height="5" fill="#525c6b"/><rect x="240" y="415" width="5" height="5" fill="#363e4b"/></svg>
